<svg xmlns="http://www.w3.org/2000/svg" viewBox="0 0 95 84"><defs><style>.cls-1{fill:red;}.cls-2{fill:none;}</style></defs><g id="Слой_2" data-name="Слой 2"><g id="Слой_1-2" data-name="Слой 1"><path class="cls-1" d="M12.7,35.32h4.88L18.51,33H12.24a4.85,4.85,0,0,0-4.12,3l-2,5.15H9.68l.86-2.2h5l.93-2.36h-5l.16-.41a1.25,1.25,0,0,1,1.07-.78"/><path class="cls-1" d="M29.27,34.69A2.24,2.24,0,0,0,28,33.24a5.87,5.87,0,0,0-2.66-.5h-.76a9,9,0,0,0-3.06.49,6.64,6.64,0,0,0-2.37,1.45A6.42,6.42,0,0,0,17.64,37a3.84,3.84,0,0,0-.28,2.33,2.19,2.19,0,0,0,1.23,1.46,6,6,0,0,0,2.66.5H22a9,9,0,0,0,3.05-.5,6.65,6.65,0,0,0,2.38-1.46A6.54,6.54,0,0,0,29,37a3.85,3.85,0,0,0,.28-2.31M25.3,37a2.94,2.94,0,0,1-2.76,1.91c-1.26-.11-1.66-.74-1.21-1.91a3,3,0,0,1,1.08-1.39,3.24,3.24,0,0,1,1.68-.49,1.57,1.57,0,0,1,1.22.49,1.5,1.5,0,0,1,0,1.39"/><path class="cls-1" d="M40.87,33.78A2.29,2.29,0,0,0,38.81,33H31.63l-3.18,8.11H32l.77-2h1l1.24,2h3.77L37.52,39a4.48,4.48,0,0,0,1.58-.7A4.71,4.71,0,0,0,40.84,36a2.39,2.39,0,0,0,0-2.25M37.15,36a1,1,0,0,1-.32.49.82.82,0,0,1-.4.19,4,4,0,0,1-.55,0H33.72l.56-1.42h2.16a3.12,3.12,0,0,1,.52,0,.34.34,0,0,1,.26.18.72.72,0,0,1-.07.49"/><path class="cls-1" d="M68.5,33H65.27l-1.58,4a3.21,3.21,0,0,1-1,1.38,2.74,2.74,0,0,1-1.52.53c-.54-.06-.9-.23-1-.52A1.7,1.7,0,0,1,60.17,37l1.59-4H58.18l-1.63,4.15c-.54,1.4-.56,2.45,0,3.14s1.64,1,3.35,1h.76a7.52,7.52,0,0,0,4.17-1,6.3,6.3,0,0,0,2.42-3.13L68.85,33Z"/><path class="cls-1" d="M71.7,37.93l1.94-5H70.06l-2,5.14c-.64,1.64.17,3,1.81,3H75.8l.93-2.37H72.17c-.43,0-.64-.35-.47-.77"/><polygon class="cls-1" points="51.98 32.96 48.02 37.63 47.72 32.96 43.1 32.96 39.93 41.07 43.51 41.07 44.97 37.33 45.22 41.07 48.59 41.07 51.77 37.33 50.31 41.07 53.88 41.07 57.06 32.96 51.98 32.96"/><path class="cls-1" d="M85.91,32.88h-.42a6,6,0,0,0-5.75,3.24l-3,5h3.45l.86-1.42h4.08L85,41.07h3.33l.53-4.3c.27-2.17-.5-3.89-2.94-3.89M85.6,36l-.17,1.45h-3l.7-1.23a1.87,1.87,0,0,1,1.82-1h0a.69.69,0,0,1,.68.77"/><path class="cls-1" d="M27.88,51.26H26.19l.62-2.91L24,51.26H22.53l1.15-5.42h1.7l-.61,2.85,2.76-2.85H29Z"/><path class="cls-1" d="M33.51,45.84h1.7l-1.15,5.42h-1.7l.43-2H30.92l-.43,2H28.8L30,45.84h1.7l-.44,2h1.87Z"/><path class="cls-1" d="M40.6,45.84l-.3,1.4H38.68l-.85,4h-1.7l.85-4h-1.6l.3-1.4Z"/><path class="cls-1" d="M45.25,47.12h-2.8l-.18.84h2.47l-.26,1.21H42l-.17.82h2.88l-.27,1.27H41c-.56,0-1-.43-.83-1.3l.6-2.83c.16-.72.53-1.29,1.41-1.29h3.32Z"/><path class="cls-1" d="M50.84,47.51c0,1-.77,2.43-3,2.43h-.71l-.28,1.32H45.16l1.16-5.42h2.32C50,45.84,50.84,46.47,50.84,47.51ZM48,48.59c.77,0,1.07-.47,1.07-.83s-.26-.57-.72-.57h-.67l-.3,1.4Z"/><path class="cls-1" d="M55.3,45.84H57l-1.16,5.42H54.15l.42-2H52.71l-.43,2h-1.7l1.16-5.42h1.7l-.44,2h1.87Z"/><path class="cls-1" d="M62.1,47.12H59.29l-.18.84h2.47l-.25,1.21H58.85l-.17.82h2.88l-.27,1.27H57.86c-.55,0-1-.43-.82-1.3l.6-2.83A1.37,1.37,0,0,1,59,45.84h3.33Z"/><path class="cls-1" d="M67.7,45.84l-.3,1.4H65.78l-.86,4H63.23l.85-4h-1.6l.3-1.4Z"/><path class="cls-1" d="M70.72,51.26l-.14-.82h-2.2l-.49.82H66.13l2.78-4.33s.61-1.09,1.47-1.09S71.54,47,71.54,47l.93,4.31Zm-.34-2-.14-.84a.32.32,0,0,0-.31-.27h0a.34.34,0,0,0-.29.16l-.58.95Z"/><rect class="cls-2" width="95" height="84"/></g></g></svg>